<?xml version="1.0" encoding="utf-8"?>
<svg width="48" height="48" viewBox="0 0 48 48" fill="none" xmlns="http://www.w3.org/2000/svg" xmlns:bx="https://boxy-svg.com">
  <defs>
    <bx:export>
      <bx:file format="svg" href="#object-0"/>
    </bx:export>
  </defs>
  <path d="M6 4C4.89543 4 4 4.89543 4 6V15.5858C4 16.4767 5.07714 16.9229 5.70711 16.2929L7.56066 14.4393C7.84196 14.158 8 13.7765 8 13.3787V9C8 8.44772 8.44772 8 9 8H13.3787C13.7765 8 14.158 7.84197 14.4393 7.56066L16.2929 5.70711C16.9229 5.07714 16.4767 4 15.5858 4H6Z" style="fill: rgb(70, 99, 54);"/>
  <path d="M6 44C4.89543 44 4 43.1046 4 42V32.4142C4 31.5233 5.07714 31.0771 5.70711 31.7071L7.56066 33.5607C7.84196 33.842 8 34.2235 8 34.6213V39C8 39.5523 8.44772 40 9 40H13.3787C13.7765 40 14.158 40.158 14.4393 40.4393L16.2929 42.2929C16.9229 42.9229 16.4767 44 15.5858 44H6Z" style="fill: rgb(70, 99, 54);"/>
  <path d="M42 4C43.1046 4 44 4.89543 44 6V15.5858C44 16.4767 42.9229 16.9229 42.2929 16.2929L40.4393 14.4393C40.158 14.158 40 13.7765 40 13.3787V9C40 8.44772 39.5523 8 39 8H34.6213C34.2235 8 33.842 7.84197 33.5607 7.56066L31.7071 5.70711C31.0771 5.07714 31.5233 4 32.4142 4H42Z" style="fill: rgb(70, 99, 54);"/>
  <path d="M42 44C43.1046 44 44 43.1046 44 42V32.4142C44 31.5233 42.9229 31.0771 42.2929 31.7071L40.4393 33.5607C40.158 33.842 40 34.2235 40 34.6213V39C40 39.5523 39.5523 40 39 40H34.6213C34.2235 40 33.842 40.158 33.5607 40.4393L31.7071 42.2929C31.0771 42.9229 31.5233 44 32.4142 44H42Z" style="fill: rgb(70, 99, 54);"/>
  <path d="M12 29.7846C12 29.1703 12.6018 28.7365 13.1846 28.9308L23.6838 32.4305C23.889 32.4989 24.111 32.4989 24.3162 32.4305L34.8154 28.9308C35.3982 28.7365 36 29.1703 36 29.7846V31.0619C36 31.7094 35.5844 32.2839 34.9693 32.4865L24.6258 35.894C24.2193 36.0279 23.7807 36.0279 23.3742 35.894L13.0307 32.4865C12.4156 32.2839 12 31.7094 12 31.0618V29.7846Z" style="fill: rgb(139, 174, 119);" id="object-0"/>
  <path d="M36 17.7912C36 18.4388 35.5844 19.0133 34.9693 19.2159L24.6258 22.6234C24.2193 22.7573 23.7807 22.7573 23.3742 22.6234L13.0307 19.2159C12.4156 19.0133 12 18.4388 12 17.7912V16.5024C12 16.1138 12.2494 15.7692 12.6184 15.6476L23.3742 12.1043C23.7807 11.9704 24.2193 11.9704 24.6258 12.1043L35.3816 15.6476C35.7506 15.7692 36 16.1138 36 16.5024V17.7912Z" style="fill: rgb(147, 184, 127);"/>
  <path d="M12 23.1846C12 22.5703 12.6018 22.1366 13.1846 22.3308L23.6838 25.8305C23.889 25.899 24.111 25.899 24.3162 25.8305L34.8154 22.3308C35.3982 22.1366 36 22.5703 36 23.1846V24.4619C36 25.1095 35.5844 25.6839 34.9693 25.8866L24.6258 29.294C24.2193 29.4279 23.7807 29.4279 23.3742 29.294L13.0307 25.8866C12.4156 25.6839 12 25.1095 12 24.4619V23.1846Z" style="fill: rgb(169, 202, 146);"/>
</svg>